# 3ds Max Wavefront OBJ Exporter v0.97b - (c)2007 guruware
# File Created: 27.04.2017 18:23:39



#
# object Box027
#

v  -3.1215 13.8429 12.0213
v  -3.1204 14.0294 12.0213
v  -2.6664 14.0259 12.0213
v  -2.3728 14.0237 12.0213
v  -1.9187 14.0202 12.0213
v  -1.9199 13.8337 12.0213
v  -3.1215 13.8429 12.5887
v  -1.9199 13.8337 12.5887
v  -1.9187 14.0202 12.5887
v  -2.3728 14.0237 12.5887
v  -2.6664 14.0259 12.5887
v  -3.1204 14.0294 12.5887
v  -2.4664 14.5015 12.0703
v  -2.5655 14.5023 12.0703
v  -2.5655 14.5023 12.5398
v  -2.4664 14.5015 12.5398
# 16 vertices

vn 0.0000 0.0000 -1.0000
vn -0.0000 -0.0000 1.0000
vn -0.0076 -1.0000 -0.0000
vn 1.0000 -0.0060 0.0000
vn 0.0076 1.0000 0.0000
vn -1.0000 0.0060 -0.0000
vn 0.0015 0.1997 -0.9798
vn -0.9783 0.2072 -0.0000
vn 0.0015 0.1997 0.9798
vn 0.9813 0.1923 0.0000
# 10 vertex normals

vt 1.0000 0.0000 0.0000
vt 1.0000 1.0000 0.0000
vt 0.6222 1.0000 0.0000
vt 0.3778 1.0000 0.0000
vt 0.0000 1.0000 0.0000
vt 0.0000 0.0000 0.0000
vt 0.3778 0.0000 0.0000
vt 0.6222 0.0000 0.0000
# 8 texture coords




f 1/1/1 2/2/1 3/3/1 4/4/1 5/5/1 6/6/1 

f 7/6/2 8/1/2 9/2/2 10/3/2 11/4/2 12/5/2 

f 1/6/3 6/1/3 8/2/3 7/5/3 

f 6/6/4 5/1/4 9/2/4 8/5/4 

f 13/7/5 14/8/5 15/3/5 16/4/5 

f 2/6/6 1/1/6 7/2/6 12/5/6 

f 3/8/5 2/1/5 12/2/5 11/3/5 
f 10/4/5 9/5/5 5/6/5 4/7/5 

f 4/7/7 3/8/7 14/8/7 13/7/7 
f 3/8/8 11/3/8 15/3/8 14/8/8 
f 11/3/9 10/4/9 16/4/9 15/3/9 
f 10/4/10 4/7/10 13/7/10 16/4/10 
# 12 polygons

